<?xml version="1.0" encoding="UTF-8" standalone="no"?>
<!-- Uploaded to: SVG Repo, www.svgrepo.com, Generator: SVG Repo Mixer Tools -->

<svg
   fill="#000000"
   width="800px"
   height="800px"
   viewBox="0 0 32 32"
   version="1.1"
   id="svg1"
   sodipodi:docname="arch-black-svg.svg"
   inkscape:version="1.3 (0e150ed6c4, 2023-07-21)"
   xmlns:inkscape="http://www.inkscape.org/namespaces/inkscape"
   xmlns:sodipodi="http://sodipodi.sourceforge.net/DTD/sodipodi-0.dtd"
   xmlns="http://www.w3.org/2000/svg"
   xmlns:svg="http://www.w3.org/2000/svg">
  <defs
     id="defs1" />
  <sodipodi:namedview
     id="namedview1"
     pagecolor="#ffffff"
     bordercolor="#000000"
     borderopacity="0.25"
     inkscape:showpageshadow="2"
     inkscape:pageopacity="0.0"
     inkscape:pagecheckerboard="0"
     inkscape:deskcolor="#d1d1d1"
     inkscape:zoom="0.40592349"
     inkscape:cx="556.75517"
     inkscape:cy="404.01703"
     inkscape:window-width="1454"
     inkscape:window-height="2025"
     inkscape:window-x="2621"
     inkscape:window-y="8"
     inkscape:window-maximized="0"
     inkscape:current-layer="svg1" />
  <path
     id="path1"
     d="m 15.186016,0.80601563 c 4.51e-4,0.001058 4.96e-4,0.001754 0.0012,0.002812 2.72e-4,-6.8533e-4 5.01e-4,-0.001111 7.81e-4,-0.001797 z m 0.0012,0.002812 C 13.833477,4.1206447 13.020687,6.2916948 11.516016,9.51 c 0.921991,0.978991 2.057033,2.120025 3.896015,3.406016 -1.978982,-0.818 -3.328071,-1.634994 -4.339062,-2.483985 C 9.1459843,14.457995 6.1249451,20.18213 0,31.192031 c 4.8179568,-2.780973 8.5470439,-4.495024 12.026016,-5.151015 -0.146,-0.641 -0.233985,-1.333056 -0.228985,-2.063047 l 0.005,-0.150938 C 11.880031,20.738058 13.484018,18.369 15.385,18.53 c 1.900982,0.161 3.380031,2.792027 3.307031,5.88 -0.016,0.577991 -0.08305,1.135016 -0.198047,1.656016 3.442973,0.671991 7.135045,2.380018 11.885,5.125 -0.937991,-1.723991 -1.770977,-3.281018 -2.572968,-4.76 -1.254991,-0.973991 -2.568027,-2.245018 -5.24,-3.62 1.838982,0.478991 3.150962,1.031024 4.176953,1.646015 C 18.624357,9.3506178 17.972018,7.3372472 15.187188,0.80882813 Z M 30.696094,27.53625 c 0,3.9e-4 -8e-6,7.87e-4 0,0.0012 l 2.34e-4,1.56e-4 c -7.2e-5,-4.45e-4 -1.6e-4,-8.83e-4 -2.34e-4,-0.0013 z" />
</svg>
