<?xml version="1.0" encoding="UTF-8" standalone="no"?>
<!-- Uploaded to: SVG Repo, www.svgrepo.com, Generator: SVG Repo Mixer Tools -->

<svg
   fill="#000000"
   width="800px"
   height="800px"
   viewBox="0 0 32 32"
   version="1.1"
   id="svg1"
   sodipodi:docname="arch-gruv-yellow.svg"
   inkscape:version="1.3 (0e150ed6c4, 2023-07-21)"
   xmlns:inkscape="http://www.inkscape.org/namespaces/inkscape"
   xmlns:sodipodi="http://sodipodi.sourceforge.net/DTD/sodipodi-0.dtd"
   xmlns="http://www.w3.org/2000/svg"
   xmlns:svg="http://www.w3.org/2000/svg">
  <defs
     id="defs1" />
  <sodipodi:namedview
     id="namedview1"
     pagecolor="#ffffff"
     bordercolor="#000000"
     borderopacity="0.25"
     inkscape:showpageshadow="2"
     inkscape:pageopacity="0.0"
     inkscape:pagecheckerboard="0"
     inkscape:deskcolor="#d1d1d1"
     inkscape:zoom="1.148125"
     inkscape:cx="310.94175"
     inkscape:cy="441.15406"
     inkscape:window-width="1454"
     inkscape:window-height="2025"
     inkscape:window-x="2621"
     inkscape:window-y="8"
     inkscape:window-maximized="0"
     inkscape:current-layer="svg1" />
  <path
     id="path1"
     d="m 16.300877,1.258928 c 4.51e-4,0.00106 4.96e-4,0.00175 0.0012,0.00281 2.72e-4,-6.853e-4 5.01e-4,-0.00111 7.81e-4,-0.0018 z m 0.0012,0.00281 c -1.353739,3.3118171 -2.166529,5.4828672 -3.6712,8.7011724 0.921991,0.9789906 2.057033,2.1200246 3.896015,3.4060156 -1.978982,-0.818 -3.328071,-1.634994 -4.339062,-2.483985 -1.926985,4.025964 -4.9480237,9.750099 -11.0729688,20.76 4.8179568,-2.780973 8.5470439,-4.495024 12.0260158,-5.151015 -0.146,-0.641 -0.233985,-1.333056 -0.228985,-2.063047 l 0.005,-0.150938 c 0.078,-3.088973 1.681987,-5.458031 3.582969,-5.297031 1.900982,0.161 3.380031,2.792027 3.307031,5.88 -0.016,0.577991 -0.08305,1.135016 -0.198047,1.656016 3.442973,0.671991 7.135045,2.380018 11.885,5.125 -0.937991,-1.723991 -1.770977,-3.281018 -2.572968,-4.76 -1.254991,-0.973991 -2.568027,-2.245018 -5.24,-3.62 1.838982,0.478991 3.150962,1.031024 4.176953,1.646015 C 19.739218,9.8035302 19.086879,7.7901596 16.302049,1.2617405 Z m 15.508878,26.727422 c 0,3.9e-4 -8e-6,7.87e-4 0,0.0012 l 2.34e-4,1.56e-4 c -7.2e-5,-4.45e-4 -1.6e-4,-8.83e-4 -2.34e-4,-0.0013 z"
     style="fill:#fabd2f;fill-opacity:1" />
</svg>
